<svg xmlns="http://www.w3.org/2000/svg" height="48" viewBox="0 96 960 960" width="48"><path d="M698 914h55V805h110v-56H753V640h-55v109H589v56h109v109Zm25.595 47q-76.215 0-130.405-54.595Q539 851.811 539 777.095q0-77.15 54.085-131.622Q647.169 591 723.905 591q75.715 0 130.405 54.377T909 776.905q0 74.715-54.595 129.405Q799.811 961 723.595 961ZM382 369v-91h481v91H382ZM179.845 908q-32.895 0-56.87-23.206Q99 861.588 99 827.181 99 795 122.675 771t57.807-24q32.845 0 55.682 24.338Q259 795.676 259 828.863q0 32.362-23.542 55.749Q211.915 908 179.845 908Zm0-251q-32.895 0-56.87-23.936Q99 609.129 99 575.274q0-32.566 24.15-56.42T180.982 495q31.57 0 54.794 24.252Q259 543.504 259 576.571q0 33.067-23.542 56.748Q211.915 657 179.845 657Zm-1-253q-32.482 0-56.164-23.9Q99 356.199 99 322.637q0-32.275 23.856-55.956Q146.712 243 179.982 243q31.983 0 55.5 24.044Q259 291.088 259 323.863q0 32.775-23.836 56.456Q211.328 404 178.845 404ZM382 873v-91h97q0 23.667 4 45.833Q487 850 496 873H382Zm0-251v-91h350q-59.841-2-109.92 23Q572 579 541 622H382Z"/></svg>