<svg xmlns="http://www.w3.org/2000/svg" height="48" viewBox="0 96 960 960" width="48"><path d="m338 766 142-142 142 142 48-48-142-142 142-142-48-48-142 142-142-142-48 48 142 142-142 142 48 48Zm141.679 231q-86.319 0-163.646-32.604-77.328-32.603-134.577-89.852-57.249-57.249-89.852-134.57Q59 662.654 59 576.138q0-87.41 32.662-164.275 32.663-76.865 90.042-134.438 57.378-57.574 134.411-90.499Q393.147 154 479.336 154q87.55 0 164.839 32.848 77.288 32.849 134.569 90.303 57.281 57.454 90.269 134.523Q902 488.743 902 576.542q0 86.734-32.926 163.544-32.925 76.809-90.499 134.199-57.573 57.39-134.447 90.052Q567.255 997 479.679 997Z"/></svg>